<svg width="595" height="237" viewBox="0 0 595 237" fill="none" xmlns="http://www.w3.org/2000/svg">
<path d="M39.8314 202.046C55.5049 196.527 86.6819 213.524 104.267 237C77.2588 231.039 51.0028 238.414 32.8654 233.321C14.7279 228.228 24.1579 207.565 39.8314 202.046Z" fill="#3B68CA"/>
<path d="M19.7118 124.957C32.4257 124.52 51.9067 144.083 60.0106 165.262C41.3149 154.715 20.4053 154.08 8.07645 146.202C-4.25242 138.323 6.99789 125.394 19.7118 124.957Z" fill="#EB0E05"/>
<path d="M125.844 139.718C138.568 142.608 150.517 172.779 149.978 198.715C136.026 178.661 102.892 175.016 101.148 160.431C99.4051 145.846 113.12 136.828 125.844 139.718Z" fill="#15796E"/>
<path d="M565.464 202.046C554.031 196.527 531.29 213.524 518.464 237C538.164 231.039 557.315 238.414 570.545 233.321C583.775 228.228 576.896 207.565 565.464 202.046Z" fill="#15796E"/>
<path d="M580.328 124.957C571.009 124.52 556.73 144.083 550.79 165.262C564.493 154.715 579.82 154.08 588.856 146.202C597.893 138.323 589.647 125.394 580.328 124.957Z" fill="#3B68CA"/>
<path d="M502.535 139.718C493.209 142.608 484.45 172.779 484.845 198.715C495.072 178.661 519.358 175.016 520.636 160.431C521.914 145.846 511.861 136.828 502.535 139.718Z" fill="#EB0E05"/>
<path d="M329.813 83.6364C332.15 75.8783 314.173 41.4121 294.963 0C275.369 39.4655 256.778 71.3492 258.371 83.6364C258.371 83.6364 260.113 120 294.963 120C329.813 120 329.813 83.6364 329.813 83.6364Z" fill="#3B68CA"/>
</svg>
