<svg width="850" height="167" viewBox="0 0 850 167" fill="none" xmlns="http://www.w3.org/2000/svg">
<path d="M56.8689 116.678C79.2463 108.799 123.759 133.065 148.865 166.583C110.305 158.072 72.8186 168.601 46.9233 161.33C21.028 154.058 34.4914 124.558 56.8689 116.678Z" fill="#3B68CA"/>
<path d="M28.1428 6.61525C46.2947 5.99136 74.1082 33.9224 85.6783 64.1602C58.986 49.1019 29.133 48.1961 11.5307 36.9472C-6.07152 25.6984 9.99083 7.23913 28.1428 6.61525Z" fill="#15796E"/>
<path d="M179.669 27.6908C197.836 31.8168 214.896 74.8929 214.126 111.923C194.207 83.2912 146.9 78.0859 144.411 57.2629C141.922 36.4399 161.503 23.5648 179.669 27.6908Z" fill="#EB0E05"/>
<path d="M807.327 116.678C791.005 108.799 758.537 133.065 740.224 166.583C768.351 158.072 795.694 168.601 814.582 161.33C833.47 154.058 823.65 124.558 807.327 116.678Z" fill="#EB0E05"/>
<path d="M828.548 6.61525C815.243 5.99136 794.857 33.9224 786.376 64.1602C805.941 49.1019 827.823 48.1961 840.725 36.9472C853.627 25.6984 841.853 7.23913 828.548 6.61525Z" fill="#15796E"/>
<path d="M717.481 27.6908C704.166 31.8168 691.661 74.8929 692.225 111.923C706.826 83.2912 741.5 78.0859 743.325 57.2629C745.149 36.4399 730.797 23.5648 717.481 27.6908Z" fill="#3B68CA"/>
</svg>
