<svg width="309" height="340" viewBox="0 0 309 340" fill="none" xmlns="http://www.w3.org/2000/svg">
<path d="M160.641 16.9978C161.062 15.4211 157.496 8.41639 154.038 0C150.511 8.02076 147.496 14.5007 147.783 16.9978C147.783 16.9978 148.096 24.3882 154.369 24.3882C160.641 24.3882 160.641 16.9978 160.641 16.9978Z" fill="black"/>
<path d="M51.4175 53.8456C55.7595 52.4571 63.8309 58.8012 68.1025 66.9006C60.9332 64.2572 53.6972 65.9742 48.9047 63.8443C44.1122 61.7143 47.0754 55.2341 51.4175 53.8456Z" fill="black"/>
<path d="M47.2919 29.0459C50.6934 29.2341 55.5055 35.9574 57.2496 42.9017C52.4689 39.0661 46.9015 38.3262 43.7671 35.5031C40.6327 32.68 43.8905 28.8576 47.2919 29.0459Z" fill="black"/>
<path d="M75.3213 36.4721C78.6596 37.7187 81.2523 47.6218 80.5957 55.8565C77.2689 49.1196 68.4987 47.1073 68.3217 42.4239C68.1448 37.7405 71.9829 35.2255 75.3213 36.4721Z" fill="black"/>
<path d="M248.777 43.0091C244.905 41.4156 237.204 46.323 232.86 53.1013C239.532 51.3802 246.017 53.5094 250.498 52.039C254.978 50.5685 252.648 44.6026 248.777 43.0091Z" fill="black"/>
<path d="M252.679 17.2874C249.732 17.1453 245.216 23.507 243.338 30.3942C247.672 26.9645 252.518 26.7581 255.376 24.196C258.234 21.6339 255.626 17.4295 252.679 17.2874Z" fill="black"/>
<path d="M228.077 22.0877C225.128 23.0275 222.358 32.8388 222.483 41.273C225.717 34.7516 233.397 33.5661 233.801 28.8233C234.206 24.0805 231.026 21.1479 228.077 22.0877Z" fill="black"/>
<path d="M95.1056 120.905C100.803 121.596 105.309 123.378 108.641 126.253C112.02 129.078 114.507 132.482 116.122 136.469C117.717 140.465 118.75 144.474 119.229 148.455C119.698 152.337 119.951 155.67 119.989 158.46C120.036 162.039 119.707 166.182 119.031 170.882C118.346 175.454 117.192 179.957 115.54 184.375C113.991 188.665 111.898 192.315 109.251 195.31C106.641 198.142 103.328 199.636 99.3107 199.784C98.6161 199.798 97.715 199.777 96.6356 199.749C95.5562 199.699 94.5706 199.671 93.6883 199.65C92.8623 199.53 92.3461 199.453 92.1583 199.425C89.7554 199.284 87.6247 200.087 85.7756 201.855C84.011 203.603 82.6781 206.034 81.7583 209.12C80.9135 212.128 80.6038 215.651 80.8384 219.724C80.9698 221.678 81.1012 223.632 81.2326 225.586C81.4016 228.362 81.7677 230.983 82.3215 233.456C82.8659 235.852 83.2789 237.522 83.5698 238.466C82.2558 240.411 81.0918 241.7 80.0593 242.32C79.0456 242.954 77.7503 243.208 76.164 243.123C74.8875 243.01 73.4232 242.334 71.7806 241.059C70.2037 239.819 68.73 238.015 67.369 235.64C65.9892 233.196 65.0037 230.138 64.4029 226.474C64.2997 225.847 64.1307 223.909 63.8961 220.668C63.6426 217.342 63.3235 213.277 62.9199 208.486C62.5444 203.617 62.0751 198.347 61.465 192.668C60.8361 187.045 60.0852 181.5 59.2123 176.018C58.2455 170.6 57.2693 165.604 56.3307 161.017C55.2137 156.085 54.1437 151.928 53.1299 148.56C52.1725 145.199 51.187 143.043 50.1639 142.12C48.3711 140.472 46.644 137.949 44.9826 134.546C43.3963 131.164 42.2606 127.937 41.6035 124.893C41.9133 124.964 42.7393 125.069 44.1003 125.182C45.4331 125.224 46.8505 125.281 48.3617 125.386C49.1032 125.344 50.3234 125.274 52.0224 125.168C53.7213 124.971 55.5704 124.696 57.5697 124.358C59.6441 124.019 61.6621 123.716 63.6239 123.477C65.5668 123.125 67.1344 122.843 68.3452 122.652C69.9972 122.314 72.1748 121.934 74.9062 121.497C77.7034 121.053 80.8666 120.736 84.3864 120.553C87.9157 120.348 91.4825 120.468 95.1056 120.905ZM85.9164 169.804C86.8644 169.952 88.0377 169.916 89.4363 169.677C90.8912 169.317 92.3273 168.761 93.7728 167.965C95.284 167.183 96.5136 166.062 97.4522 164.597C98.3909 163.025 98.7945 161.123 98.6537 158.904C98.4753 155.825 97.5461 153.443 95.8753 151.773C94.2609 150.124 92.3179 149.018 90.0558 148.426C87.8594 147.863 85.7569 147.644 83.7669 147.778C80.8478 147.94 78.4918 149.11 76.7178 151.315C74.9532 153.394 74.268 155.839 74.6434 158.685C74.9626 160.559 75.6947 162.307 76.8304 163.934C78.0131 165.47 79.4117 166.788 81.0074 167.873C82.65 168.965 84.2832 169.606 85.9164 169.804ZM176.241 222.197C176.119 224.79 175.978 227.982 175.847 231.751C175.772 235.542 175.922 239.185 176.288 242.644C176.654 246.097 177.424 248.704 178.597 250.479C176.992 252.973 175.387 254.89 173.801 256.214C172.205 257.666 170.684 258.378 169.23 258.321C168.826 258.194 168.394 258.018 167.944 257.786C167.484 257.666 166.845 257.483 166.038 257.222C164.715 256.715 163.11 256.94 161.242 257.941C159.383 258.899 157.422 260.012 155.366 261.273C153.376 262.612 151.433 263.422 149.528 263.69C146.44 263.93 143.361 262.626 140.291 259.878C137.203 256.891 134.416 252.572 131.919 247.062C129.375 241.658 127.413 235.126 126.034 227.538C124.626 220.083 124.166 211.445 124.663 201.623C125.011 194.88 126.062 188.813 127.855 183.346C129.685 177.751 131.966 172.967 134.688 168.965C137.532 164.808 140.526 161.63 143.661 159.432C146.89 157.1 149.988 155.987 152.916 156.078C155.15 156.198 156.858 156.304 158.041 156.409C159.28 156.536 160.866 156.818 162.781 157.269C163.945 157.494 165.456 157.213 167.315 156.416C169.183 155.634 171.051 154.796 172.918 153.887C174.88 152.901 176.523 152.407 177.846 152.414C179.874 152.33 181.272 152.443 182.079 152.781C182.877 153.006 183.544 153.232 184.079 153.464C183.459 155.437 182.812 158.424 182.145 162.398C181.469 166.393 180.822 170.966 180.202 176.103C179.667 181.148 179.113 186.453 178.56 192.005C178.006 197.586 177.527 202.99 177.114 208.19C176.776 213.411 176.485 218.082 176.241 222.197ZM141.493 208.211C141.493 214.305 141.962 219.118 142.901 222.641C143.886 226.03 145.079 228.454 146.477 229.842C147.923 231.237 149.321 231.899 150.692 231.843C153.404 231.8 155.497 229.503 156.971 225.015C158.473 220.569 159.383 214.566 159.684 207.069C159.778 205.047 159.778 202.666 159.665 199.925C159.618 197.212 159.355 194.57 158.914 191.991C158.51 189.441 157.872 187.292 156.971 185.558C156.126 183.825 154.934 182.972 153.404 183.001C150.325 183.043 147.547 185.058 145.097 189.067C142.741 193.062 141.549 199.425 141.493 208.211ZM203.077 151.872C200.749 151.978 198.787 150.963 197.22 148.828C195.69 146.665 194.629 144.009 194.038 140.873C193.512 137.611 193.512 134.511 194.075 131.622C194.948 127.211 196.647 124.181 199.172 122.512C201.716 120.863 204.259 120.074 206.812 120.158C210.464 120.215 213.101 121.772 214.678 124.823C216.227 127.817 216.687 131.15 216.067 134.821C215.654 137.28 214.838 139.753 213.646 142.289C212.529 144.84 211.064 147.038 209.262 148.884C207.488 150.653 205.433 151.646 203.077 151.872ZM202.814 229.419C202.673 231.378 202.823 232.984 203.283 234.259C203.799 235.373 204.447 236.416 205.207 237.346C204.701 238.473 204.072 239.692 203.321 241.009C202.57 242.327 201.5 243.701 200.12 245.117C198.806 246.421 196.947 247.745 194.545 249.091C193.775 249.443 192.808 249.605 191.672 249.521C190.518 249.556 189.42 248.83 188.378 247.351C187.402 245.709 186.716 242.898 186.331 238.917C185.947 234.809 186.125 229.053 186.876 221.676C187.045 220.414 187.27 217.962 187.542 214.355C187.88 210.74 188.265 206.478 188.697 201.559C189.204 196.656 189.711 191.632 190.208 186.474C190.79 181.345 191.306 176.589 191.757 172.249C192.292 167.817 192.686 164.251 192.949 161.56C193.296 158.742 193.465 157.346 193.465 157.346C194.094 157.241 195.126 157.114 196.563 156.994C198.083 156.762 199.716 156.733 201.443 156.924C203.161 157.107 204.766 157.593 206.249 158.382C207.807 159.059 209.009 160.186 209.863 161.799C210.773 163.371 211.102 165.541 210.83 168.275C210.511 172.157 209.797 177.378 208.699 184.001C207.676 190.554 206.578 197.797 205.414 205.759C204.334 213.714 203.471 221.598 202.814 229.419ZM210.83 230.116C210.914 229.257 211.168 226.946 211.59 223.226C212.031 219.386 212.594 214.686 213.298 209.134C214.04 203.617 214.857 197.635 215.767 191.202C216.828 184.706 217.945 178.202 219.137 171.713C220.376 165.259 221.549 159.192 222.657 153.471C223.849 147.68 224.862 142.649 225.66 138.414C226.411 134.37 226.834 130.981 226.937 128.275C227.04 125.457 227.106 123.738 227.143 123.132C228.044 122.984 229.34 123.019 231.039 123.223C232.756 123.329 234.596 123.752 236.53 124.449C238.548 125.048 240.378 125.957 241.983 127.183C243.598 128.296 244.743 129.818 245.428 131.777C246.113 133.609 246.047 135.934 245.278 138.745C244.808 140.472 243.926 143.501 242.612 147.849C241.392 152.111 239.937 157.149 238.266 163.011C236.764 168.817 235.338 174.891 234.023 181.267C232.916 187.665 231.968 193.816 231.132 199.713C230.419 205.625 229.828 210.635 229.349 214.7C228.955 218.66 228.72 221.006 228.636 221.725C228.401 223.874 228.486 225.882 228.908 227.756C229.387 229.511 229.978 230.539 230.682 230.828C230.25 231.751 229.358 233.062 227.997 234.774C226.646 236.521 225.097 238.226 223.351 239.931C221.671 241.622 220 242.919 218.339 243.793C216.987 244.476 215.636 244.363 214.322 243.433C213.045 242.616 212.031 241.066 211.299 238.769C210.623 236.458 210.464 233.569 210.83 230.116Z" fill="black"/>
<path d="M243.944 243.829L235.79 278.479C235.79 278.479 235.79 294.743 148.261 294.743C60.7316 294.743 60.7316 278.479 60.7316 278.479L54.4949 250.193C8.72941 256.156 -2.27653 272.353 0.366592 285.55C3.00971 298.748 24.1421 300.318 29.04 303.936C33.9379 307.553 -10.6363 315.957 23.758 329.393C58.1524 342.829 37.3939 329.393 67.5227 329.393C97.6515 329.393 75.0913 340 109.778 340C144.465 340 130.12 313.129 160.334 318.079C190.547 323.029 142.802 329.393 188.253 329.393C233.704 329.393 205.246 340 252.391 340C299.536 340 235.79 323.641 287.101 318.079C338.411 312.516 281.064 297.572 281.064 297.572C281.064 297.572 269.593 273.074 281.064 265.043C292.535 257.012 249.625 240.542 243.944 243.829Z" fill="black"/>
<path d="M274.008 79.4093C274.008 81.6034 232.971 90.3798 154.918 90.3798C144.158 90.3798 133.857 90.1991 124.093 89.8837C124.093 89.8837 117.968 94.6836 115.485 101.139C111.899 110.464 109.594 105.42 107.595 101.857C103.754 95.0107 87.3167 89.2069 88.3875 88.0347C47.886 85.1193 22.9536 80.404 22.9536 79.4093C22.9536 78.617 58.133 76.7517 90.3798 75.2083C95.0213 74.9861 96.0156 72.6519 100.422 72.4473C102.666 72.3431 103.569 72.79 107.628 73.465L112.616 74.1696C121.224 75.2083 142.848 72.827 142.848 72.827C150.978 66.0199 151.498 61.1342 154.918 53.0802C159.038 61.1869 158.819 66.5486 168.598 72.827C168.598 72.827 176.479 73.1551 187.933 73.6768C235.274 61.6878 216.499 72.9065 234.557 76.0113C255.822 77.2081 274.008 78.498 274.008 79.4093Z" fill="black"/>
<circle cx="154.937" cy="50.2109" r="5.7384" fill="black"/>
<circle cx="111.181" cy="105.443" r="3.5865" fill="black"/>
</svg>
