<svg width="133" height="146" viewBox="0 0 133 146" fill="none" xmlns="http://www.w3.org/2000/svg">
<path d="M68.9809 7.29907C69.1615 6.62201 67.6301 3.6141 66.1454 0C64.6311 3.44421 63.3362 6.22675 63.4593 7.29907C63.4593 7.29907 63.594 10.4726 66.2874 10.4726C68.9809 10.4726 68.9809 7.29907 68.9809 7.29907Z" fill="#12204A"/>
<path d="M22.0784 23.122C23.943 22.5257 27.4089 25.25 29.2432 28.728C26.1646 27.5928 23.0574 28.3301 20.9994 27.4155C18.9415 26.5009 20.2139 23.7182 22.0784 23.122Z" fill="#12204A"/>
<path d="M20.3072 12.4726C21.7678 12.5534 23.8342 15.4405 24.5831 18.4225C22.5302 16.7754 20.1395 16.4577 18.7936 15.2454C17.4477 14.0332 18.8466 12.3918 20.3072 12.4726Z" fill="#12204A"/>
<path d="M32.3432 15.6618C33.7767 16.1971 34.89 20.4496 34.6081 23.9857C33.1795 21.0928 29.4135 20.2287 29.3375 18.2176C29.2615 16.2065 30.9096 15.1265 32.3432 15.6618Z" fill="#12204A"/>
<path d="M106.826 18.4686C105.164 17.7843 101.857 19.8916 99.9917 22.8023C102.857 22.0632 105.641 22.9775 107.565 22.3461C109.489 21.7147 108.489 19.1529 106.826 18.4686Z" fill="#12204A"/>
<path d="M108.503 7.42338C107.237 7.36236 105.298 10.0942 104.491 13.0516C106.352 11.5788 108.434 11.4902 109.661 10.39C110.888 9.28982 109.768 7.4844 108.503 7.42338Z" fill="#12204A"/>
<path d="M97.9384 9.48486C96.6719 9.88841 95.4824 14.1015 95.5361 17.7232C96.9249 14.9229 100.223 14.4138 100.397 12.3772C100.57 10.3406 99.2049 9.08131 97.9384 9.48486Z" fill="#12204A"/>
<path d="M40.8387 51.9181C43.2853 52.2146 45.22 52.9801 46.6508 54.2145C48.1019 55.4278 49.17 56.8891 49.8632 58.6016C50.5484 60.3171 50.9918 62.0387 51.1974 63.7481C51.3989 65.4152 51.5077 66.8463 51.5238 68.0445C51.544 69.5815 51.4029 71.3605 51.1127 73.3786C50.8185 75.3422 50.3227 77.2755 49.6133 79.1726C48.9483 81.0152 48.0495 82.5824 46.9128 83.8683C45.7923 85.0846 44.3695 85.726 42.6444 85.7896C42.3461 85.7956 41.9592 85.7865 41.4957 85.7744C41.0322 85.7533 40.609 85.7411 40.2301 85.7321C39.8754 85.6806 39.6537 85.6474 39.5731 85.6353C38.5413 85.5747 37.6263 85.9197 36.8323 86.6791C36.0745 87.4294 35.5022 88.4733 35.1072 89.7985C34.7444 91.0904 34.6114 92.6032 34.7122 94.352C34.7686 95.1911 34.825 96.0302 34.8815 96.8693C34.954 98.0613 35.1112 99.1869 35.349 100.249C35.5828 101.278 35.7601 101.995 35.8851 102.4C35.3208 103.235 34.821 103.789 34.3776 104.055C33.9423 104.327 33.3861 104.436 32.7049 104.4C32.1568 104.352 31.528 104.061 30.8226 103.513C30.1455 102.981 29.5127 102.206 28.9283 101.187C28.3358 100.137 27.9126 98.8238 27.6546 97.2505C27.6103 96.9812 27.5377 96.1492 27.4369 94.7574C27.3281 93.3293 27.1911 91.5836 27.0178 89.5262C26.8565 87.4355 26.655 85.1723 26.393 82.7337C26.123 80.3193 25.8005 77.9382 25.4257 75.5842C25.0105 73.2576 24.5913 71.1124 24.1883 69.1428C23.7086 67.0248 23.2491 65.2397 22.8138 63.7935C22.4027 62.3503 21.9795 61.4245 21.5402 61.0281C20.7703 60.3201 20.0287 59.237 19.3153 57.7756C18.6341 56.3233 18.1464 54.9376 17.8643 53.6306C17.9973 53.6608 18.352 53.7062 18.9364 53.7546C19.5087 53.7728 20.1174 53.797 20.7663 53.8423C21.0847 53.8242 21.6087 53.7939 22.3382 53.7486C23.0678 53.6638 23.8618 53.5458 24.7203 53.4006C25.6111 53.2554 26.4777 53.1253 27.3201 53.0224C28.1544 52.8711 28.8275 52.7501 29.3474 52.6684C30.0568 52.5232 30.9919 52.3598 32.1648 52.1722C33.366 51.9816 34.7243 51.8455 36.2358 51.7668C37.7513 51.6791 39.2829 51.7305 40.8387 51.9181ZM36.8927 72.9157C37.2998 72.9792 37.8037 72.9641 38.4042 72.8612C39.029 72.7069 39.6456 72.4679 40.2664 72.126C40.9153 71.7902 41.4433 71.3091 41.8464 70.6798C42.2494 70.0051 42.4227 69.1881 42.3623 68.2351C42.2857 66.9129 41.8867 65.8903 41.1692 65.1732C40.4759 64.4652 39.6416 63.9902 38.6702 63.736C37.7271 63.494 36.8242 63.4002 35.9697 63.4577C34.7162 63.5273 33.7045 64.0295 32.9427 64.9765C32.185 65.8691 31.8908 66.919 32.052 68.1413C32.189 68.9461 32.5034 69.6964 32.9911 70.3954C33.499 71.0549 34.0995 71.6207 34.7847 72.0867C35.4901 72.5556 36.1914 72.831 36.8927 72.9157ZM75.6792 95.414C75.6268 96.5274 75.5664 97.898 75.51 99.5167C75.4777 101.144 75.5422 102.709 75.6994 104.194C75.8566 105.677 76.1871 106.796 76.6909 107.559C76.0017 108.63 75.3125 109.453 74.6313 110.022C73.9461 110.645 73.2931 110.95 72.6684 110.926C72.4951 110.872 72.3097 110.796 72.1162 110.696C71.9187 110.645 71.6446 110.566 71.298 110.454C70.7297 110.236 70.0404 110.333 69.2383 110.763C68.4403 111.174 67.5979 111.652 66.7152 112.194C65.8607 112.769 65.0264 113.117 64.2081 113.232C62.8821 113.335 61.56 112.775 60.242 111.595C58.916 110.312 57.7189 108.457 56.6467 106.091C55.5544 103.771 54.712 100.966 54.1195 97.7074C53.5149 94.5063 53.3175 90.7969 53.5311 86.5792C53.6802 83.6837 54.1316 81.0787 54.9015 78.7309C55.6875 76.3285 56.6669 74.2742 57.8358 72.5556C59.057 70.7705 60.3428 69.406 61.689 68.462C63.0755 67.4605 64.4056 66.9825 65.6632 67.0218C66.6225 67.0733 67.356 67.1186 67.8639 67.164C68.3959 67.2185 69.0771 67.3395 69.8994 67.5331C70.3992 67.63 71.0481 67.5089 71.8461 67.167C72.6482 66.8312 73.4503 66.4712 74.2524 66.0809C75.0948 65.6573 75.8002 65.4455 76.3685 65.4485C77.2391 65.4122 77.8397 65.4606 78.1863 65.6058C78.5289 65.7027 78.8151 65.7995 79.0448 65.8993C78.7788 66.7465 78.5007 68.0293 78.2145 69.7358C77.9243 71.4513 77.6462 73.4149 77.3802 75.6205C77.1504 77.7869 76.9126 80.0651 76.6748 82.4493C76.437 84.8456 76.2314 87.1662 76.0541 89.3991C75.909 91.641 75.784 93.647 75.6792 95.414ZM60.7579 89.4082C60.7579 92.0253 60.9595 94.0918 61.3625 95.6046C61.7858 97.0599 62.2976 98.1007 62.8982 98.6967C63.5189 99.2958 64.1195 99.5802 64.7079 99.556C65.8728 99.5378 66.7716 98.5515 67.4044 96.6242C68.0493 94.715 68.4403 92.1372 68.5693 88.918C68.6096 88.0497 68.6096 87.027 68.5612 85.8501C68.541 84.6852 68.4282 83.5506 68.2388 82.4433C68.0654 81.348 67.7914 80.4252 67.4044 79.6809C67.0417 78.9366 66.5298 78.5705 65.8728 78.5826C64.5507 78.6008 63.3577 79.4661 62.3057 81.1876C61.294 82.9031 60.7821 85.6353 60.7579 89.4082ZM87.2027 65.2155C86.2031 65.2609 85.3608 64.8252 84.6876 63.9085C84.0307 62.9796 83.5752 61.839 83.3213 60.4926C83.0956 59.0918 83.0956 57.7605 83.3374 56.52C83.7122 54.626 84.4418 53.325 85.526 52.6079C86.6183 51.8999 87.7106 51.5611 88.8069 51.5974C90.3748 51.6216 91.5074 52.2902 92.1846 53.6003C92.8496 54.8862 93.0471 56.3173 92.7811 57.8936C92.6037 58.9495 92.2531 60.0115 91.7412 61.1007C91.2616 62.196 90.6328 63.14 89.8589 63.9327C89.0971 64.6921 88.2144 65.1187 87.2027 65.2155ZM87.0899 98.5152C87.0294 99.3563 87.0939 100.046 87.2914 100.594C87.5131 101.072 87.7912 101.52 88.1177 101.919C87.9 102.403 87.63 102.926 87.3075 103.492C86.9851 104.058 86.5256 104.648 85.9331 105.256C85.3688 105.816 84.5708 106.385 83.5389 106.963C83.2084 107.114 82.7933 107.184 82.3056 107.147C81.8098 107.162 81.3382 106.851 80.8908 106.215C80.4716 105.51 80.1774 104.303 80.0121 102.594C79.8469 100.83 79.9235 98.3579 80.2459 95.1901C80.3185 94.6485 80.4152 93.5956 80.5321 92.0465C80.6772 90.4944 80.8424 88.6639 81.0279 86.552C81.2455 84.4462 81.4632 82.2889 81.6768 80.0742C81.9267 77.8716 82.1484 75.8293 82.3418 73.9656C82.5716 72.0625 82.7409 70.5315 82.8537 69.3757C83.0029 68.1655 83.0754 67.5664 83.0754 67.5664C83.3455 67.521 83.7888 67.4666 84.4055 67.4151C85.0585 67.3153 85.7598 67.3032 86.5014 67.3849C87.239 67.4636 87.9283 67.6723 88.5651 68.0112C89.2342 68.3016 89.7501 68.7857 90.1169 69.4786C90.5078 70.1533 90.6489 71.0852 90.532 72.2591C90.395 73.9262 90.0887 76.1682 89.6171 79.0122C89.1777 81.826 88.7062 84.9363 88.2064 88.3553C87.7428 91.7711 87.372 95.1568 87.0899 98.5152ZM90.532 98.8147C90.5683 98.4456 90.6771 97.4532 90.8585 95.8557C91.0479 94.2068 91.2898 92.1887 91.5921 89.8045C91.9105 87.4355 92.2611 84.8668 92.6521 82.1044C93.1076 79.3148 93.5872 76.5222 94.0991 73.7356C94.6311 70.9642 95.135 68.3591 95.6106 65.9024C96.1225 63.4153 96.5578 61.255 96.9004 59.4367C97.2228 57.7 97.4042 56.2447 97.4485 55.0828C97.4929 53.8726 97.5211 53.1344 97.5372 52.8742C97.9241 52.8106 98.4804 52.8258 99.2099 52.9135C99.9475 52.9589 100.738 53.1404 101.568 53.4399C102.434 53.6971 103.22 54.0874 103.91 54.6139C104.603 55.0919 105.095 55.7454 105.389 56.5866C105.683 57.3732 105.655 58.3717 105.324 59.5789C105.123 60.3201 104.744 61.6211 104.18 63.4879C103.656 65.3184 103.031 67.4817 102.313 69.999C101.669 72.4921 101.056 75.1001 100.492 77.8383C100.016 80.5855 99.6089 83.2269 99.2502 85.7593C98.9439 88.2978 98.69 90.449 98.4844 92.1947C98.3151 93.8951 98.2144 94.9026 98.1781 95.2112C98.0773 96.134 98.1136 96.9963 98.295 97.8011C98.5005 98.5545 98.7545 98.9963 99.0568 99.1203C98.8713 99.5167 98.4884 100.079 97.904 100.815C97.3236 101.565 96.6585 102.297 95.9089 103.029C95.1874 103.756 94.4699 104.312 93.7565 104.687C93.1761 104.981 92.5957 104.932 92.0314 104.533C91.4832 104.182 91.0479 103.516 90.7336 102.53C90.4434 101.538 90.3748 100.297 90.532 98.8147Z" fill="#12204A"/>
<path d="M104.753 104.703L101.251 119.582C101.251 119.582 101.251 126.566 63.665 126.566C26.0789 126.566 26.0789 119.582 26.0789 119.582L23.4008 107.436C3.74851 109.996 -0.977568 116.951 0.157419 122.618C1.29241 128.286 10.3669 128.96 12.4701 130.513C14.5733 132.067 -4.56737 135.676 10.202 141.445C24.9713 147.214 16.0574 141.445 28.995 141.445C41.9327 141.445 32.2451 146 47.1401 146C62.0351 146 55.8753 134.461 68.8493 136.587C81.8233 138.712 61.3208 141.445 80.838 141.445C100.355 141.445 88.1349 146 108.38 146C128.624 146 101.251 138.975 123.284 136.587C145.318 134.198 120.692 127.781 120.692 127.781C120.692 127.781 115.766 117.261 120.692 113.812C125.618 110.364 107.192 103.291 104.753 104.703Z" fill="#12204A"/>
<path d="M117.662 34.0995C117.662 35.0417 100.04 38.8103 66.5237 38.8103C61.9032 38.8103 57.4798 38.7327 53.2868 38.5973C53.2868 38.5973 50.6568 40.6584 49.5906 43.4306C48.0505 47.4348 47.061 45.2687 46.2024 43.7386C44.5529 40.7989 37.4947 38.3067 37.9545 37.8034C20.5627 36.5514 9.85645 34.5266 9.85645 34.0995C9.85645 33.7592 24.9629 32.9583 38.81 32.2955C40.8032 32.2001 41.2301 31.1978 43.1223 31.1099C44.0859 31.0652 44.4737 31.2571 46.2166 31.547L48.3586 31.8495C52.0548 32.2955 61.3407 31.273 61.3407 31.273C64.8316 28.3499 65.0548 26.2519 66.5237 22.7935C68.2928 26.2746 68.1987 28.577 72.3977 31.273C72.3977 31.273 75.7822 31.4139 80.7003 31.6379C101.029 26.4897 92.9673 31.3071 100.721 32.6403C109.853 33.1542 117.662 33.7081 117.662 34.0995Z" fill="#12204A"/>
<circle cx="66.5315" cy="21.5613" r="2.46413" fill="#12204A"/>
<circle cx="66.4489" cy="25.2693" r="1.87179" fill="#12204A"/>
<circle cx="47.7422" cy="45.2784" r="1.54008" fill="#12204A"/>
</svg>
