<svg width="85" height="60" viewBox="0 0 85 60" fill="none" xmlns="http://www.w3.org/2000/svg">
<path d="M22.0296 0.310049C24.3755 0.594362 26.2306 1.32836 27.6027 2.51203C28.994 3.67539 30.0182 5.07665 30.6829 6.7187C31.3399 8.36366 31.7651 10.0144 31.9622 11.6536C32.1554 13.2521 32.2598 14.6243 32.2752 15.7732C32.2946 17.247 32.1593 18.9529 31.881 20.8879C31.5989 22.7708 31.1235 24.6246 30.4433 26.4437C29.8056 28.2105 28.9437 29.7133 27.8539 30.9462C26.7794 32.1125 25.4152 32.7276 23.761 32.7885C23.475 32.7943 23.104 32.7856 22.6595 32.774C22.2151 32.7537 21.8093 32.7421 21.446 32.7334C21.1059 32.684 20.8933 32.6521 20.816 32.6405C19.8266 32.5825 18.9493 32.9132 18.1879 33.6414C17.4613 34.3609 16.9125 35.3618 16.5338 36.6325C16.1859 37.8713 16.0584 39.3219 16.155 40.9987C16.2091 41.8033 16.2632 42.6079 16.3173 43.4125C16.3869 44.5556 16.5376 45.6348 16.7657 46.6531C16.9898 47.6395 17.1599 48.3271 17.2797 48.7158C16.7386 49.5165 16.2594 50.0474 15.8342 50.3028C15.4168 50.5639 14.8835 50.6683 14.2303 50.6335C13.7047 50.5871 13.1018 50.3086 12.4254 49.7834C11.7762 49.2728 11.1694 48.5301 10.609 47.5525C10.0408 46.5458 9.63503 45.2867 9.38768 43.7781C9.34517 43.5198 9.2756 42.722 9.17898 41.3875C9.07463 40.0182 8.94323 38.3442 8.77704 36.3714C8.62245 34.3667 8.4292 32.1966 8.17799 29.8583C7.91905 27.5432 7.60986 25.26 7.25043 23.0029C6.85235 20.7719 6.45041 18.715 6.06393 16.8263C5.60401 14.7955 5.16342 13.0838 4.74602 11.6971C4.3518 10.3132 3.946 9.42548 3.52473 9.04543C2.78655 8.36656 2.07542 7.32794 1.39134 5.92669C0.738183 4.53413 0.270538 3.2054 0 1.9521C0.12754 1.98112 0.467645 2.02463 1.02805 2.07105C1.57685 2.08846 2.16044 2.11167 2.78268 2.15518C3.088 2.13778 3.59043 2.10877 4.28997 2.06525C4.9895 1.98402 5.75087 1.87087 6.57408 1.73162C7.42821 1.59236 8.25915 1.46761 9.0669 1.36897C9.86692 1.22391 10.5123 1.10787 11.0109 1.02954C11.6911 0.890281 12.5878 0.733619 13.7124 0.553747C14.8642 0.370975 16.1666 0.240421 17.6159 0.164991C19.0691 0.080858 20.5377 0.130178 22.0296 0.310049ZM18.2459 20.4441C18.6362 20.505 19.1193 20.4905 19.6952 20.3918C20.2942 20.2439 20.8856 20.0147 21.4808 19.6869C22.103 19.3648 22.6093 18.9036 22.9958 18.3001C23.3823 17.6532 23.5484 16.8698 23.4905 15.956C23.417 14.6882 23.0344 13.7076 22.3465 13.02C21.6817 12.3411 20.8817 11.8857 19.9503 11.642C19.0459 11.4099 18.1802 11.3199 17.3608 11.3751C16.1589 11.4418 15.1888 11.9234 14.4583 12.8314C13.7318 13.6873 13.4496 14.694 13.6042 15.866C13.7356 16.6377 14.0371 17.3572 14.5047 18.0274C14.9917 18.6599 15.5676 19.2024 16.2246 19.6491C16.9009 20.0988 17.5734 20.3628 18.2459 20.4441ZM55.4372 42.0171C55.3869 43.0847 55.329 44.3989 55.2749 45.951C55.244 47.5118 55.3058 49.0117 55.4565 50.4362C55.6072 51.8578 55.9242 52.9312 56.4073 53.6623C55.7464 54.6893 55.0855 55.4784 54.4323 56.0238C53.7753 56.6215 53.1492 56.9145 52.5502 56.8913C52.384 56.8391 52.2062 56.7665 52.0207 56.6708C51.8313 56.6215 51.5685 56.546 51.2361 56.4387C50.6912 56.2298 50.0303 56.3226 49.2612 56.7346C48.4959 57.1292 47.6882 57.5876 46.8418 58.1069C46.0225 58.6581 45.2224 58.9917 44.4379 59.102C43.1663 59.2006 41.8987 58.6639 40.6349 57.5324C39.3633 56.3023 38.2155 54.5239 37.1874 52.2552C36.1401 50.03 35.3323 47.3407 34.7642 44.2161C34.1845 41.1467 33.9951 37.5899 34.1999 33.5457C34.3429 30.7693 34.7758 28.2714 35.514 26.0201C36.2676 23.7166 37.2068 21.7467 38.3276 20.0988C39.4986 18.3871 40.7315 17.0787 42.0223 16.1736C43.3519 15.2133 44.6272 14.7549 45.8331 14.7926C46.7529 14.8419 47.4563 14.8855 47.9433 14.929C48.4534 14.9812 49.1066 15.0972 49.895 15.2829C50.3743 15.3757 50.9965 15.2597 51.7617 14.9319C52.5308 14.6098 53.2999 14.2646 54.069 13.8904C54.8768 13.4842 55.5531 13.2811 56.0981 13.284C56.9329 13.2492 57.5087 13.2956 57.8411 13.4349C58.1696 13.5277 58.444 13.6205 58.6643 13.7163C58.4092 14.5286 58.1426 15.7587 57.8682 17.395C57.5899 19.0399 57.3232 20.9228 57.0682 23.0377C56.8479 25.1149 56.6198 27.2995 56.3918 29.5856C56.1638 31.8833 55.9667 34.1085 55.7966 36.2496C55.6575 38.3993 55.5377 40.3228 55.4372 42.0171ZM41.1296 36.2583C41.1296 38.7678 41.3228 40.7492 41.7093 42.1998C42.1151 43.5953 42.6059 44.5933 43.1818 45.1648C43.777 45.7392 44.3528 46.0119 44.9171 45.9887C46.0341 45.9713 46.8959 45.0255 47.5027 43.1775C48.1211 41.3469 48.4959 38.8751 48.6196 35.7883C48.6583 34.9556 48.6583 33.9751 48.6119 32.8465C48.5926 31.7296 48.4844 30.6416 48.3027 29.5798C48.1365 28.5296 47.8737 27.6447 47.5027 26.931C47.1549 26.2174 46.664 25.8663 46.034 25.8779C44.7664 25.8953 43.6224 26.7251 42.6137 28.3758C41.6436 30.0208 41.1528 32.6405 41.1296 36.2583ZM66.4868 13.0606C65.5283 13.1041 64.7205 12.6864 64.0751 11.8073C63.4451 10.9167 63.0084 9.82294 62.7649 8.53192C62.5485 7.18869 62.5485 5.91218 62.7804 4.72271C63.1398 2.90658 63.8393 1.65909 64.879 0.971512C65.9264 0.292642 66.9737 -0.0322864 68.025 0.00252748C69.5284 0.0257367 70.6144 0.66689 71.2637 1.92309C71.9014 3.15608 72.0908 4.52833 71.8357 6.03983C71.6656 7.05233 71.3294 8.07064 70.8386 9.11505C70.3786 10.1653 69.7757 11.0704 69.0337 11.8305C68.3032 12.5587 67.4568 12.9678 66.4868 13.0606ZM66.3785 44.9907C66.3206 45.7973 66.3824 46.4587 66.5718 46.9838C66.7843 47.4422 67.051 47.8716 67.3641 48.2545C67.1554 48.7187 66.8964 49.2206 66.5872 49.7631C66.2781 50.3056 65.8375 50.8714 65.2693 51.4545C64.7283 51.9912 63.963 52.5366 62.9736 53.0908C62.6567 53.2358 62.2586 53.3025 61.791 53.2677C61.3156 53.2822 60.8634 52.9834 60.4344 52.3742C60.0325 51.6982 59.7503 50.5406 59.5919 48.9015C59.4334 47.2101 59.5069 44.8399 59.8161 41.8024C59.8856 41.2831 59.9784 40.2735 60.0905 38.7881C60.2296 37.2998 60.388 35.5446 60.5658 33.5196C60.7745 31.5004 60.9832 29.4318 61.1881 27.3082C61.4277 25.1962 61.6403 23.2379 61.8258 21.4508C62.0461 19.6259 62.2084 18.158 62.3166 17.0497C62.4596 15.8893 62.5292 15.3148 62.5292 15.3148C62.7881 15.2713 63.2132 15.2191 63.8046 15.1698C64.4307 15.074 65.1031 15.0624 65.8143 15.1408C66.5215 15.2162 67.1824 15.4164 67.7931 15.7413C68.4346 16.0198 68.9293 16.484 69.281 17.1484C69.6559 17.7953 69.7912 18.6889 69.6791 19.8145C69.5477 21.4131 69.254 23.5628 68.8018 26.2899C68.3805 28.988 67.9283 31.9704 67.4491 35.2487C67.0046 38.5241 66.6491 41.7705 66.3785 44.9907ZM69.6791 45.278C69.7139 44.924 69.8182 43.9724 69.9922 42.4406C70.1738 40.8595 70.4057 38.9244 70.6956 36.6383C71.0009 34.3667 71.3371 31.9036 71.712 29.2549C72.1487 26.58 72.6087 23.9022 73.0995 21.2303C73.6096 18.5728 74.0928 16.0749 74.5488 13.7192C75.0396 11.3344 75.457 9.26301 75.7855 7.51942C76.0947 5.85416 76.2687 4.4587 76.3112 3.34466C76.3537 2.1842 76.3807 1.47631 76.3962 1.22682C76.7672 1.16589 77.3006 1.1804 78.0001 1.26453C78.7074 1.30805 79.4649 1.48212 80.261 1.76933C81.092 2.01593 81.8456 2.39018 82.5065 2.89498C83.1712 3.35336 83.6428 3.98001 83.9249 4.78653C84.207 5.54083 84.18 6.49821 83.8631 7.65577C83.6698 8.36656 83.3065 9.61405 82.7654 11.4041C82.263 13.1593 81.664 15.2336 80.976 17.6474C80.3577 20.0379 79.7702 22.5387 79.2291 25.1642C78.7731 27.7985 78.3827 30.3312 78.0387 32.7595C77.745 35.1935 77.5015 37.2563 77.3044 38.9302C77.1421 40.5607 77.0455 41.5268 77.0107 41.8227C76.9141 42.7075 76.9489 43.5344 77.1228 44.3061C77.3199 45.0285 77.5634 45.452 77.8532 45.571C77.6755 45.951 77.3083 46.4906 76.7479 47.1956C76.1914 47.9151 75.5537 48.6172 74.8348 49.3193C74.143 50.0155 73.4551 50.5494 72.771 50.9091C72.2144 51.1905 71.6579 51.1441 71.1168 50.7611C70.5912 50.4246 70.1738 49.7863 69.8724 48.8406C69.5941 47.889 69.5284 46.6995 69.6791 45.278Z" fill="white"/>
</svg>
