<svg width="595" height="237" viewBox="0 0 595 237" fill="none" xmlns="http://www.w3.org/2000/svg">
<path d="M39.8314 202.046C55.5049 196.527 86.6819 213.524 104.267 237C77.2588 231.039 51.0028 238.414 32.8654 233.321C14.7279 228.228 24.1579 207.565 39.8314 202.046Z" fill="black"/>
<path d="M19.7113 124.956C32.4252 124.519 51.9062 144.083 60.0101 165.262C41.3144 154.715 20.4048 154.08 8.07596 146.201C-4.25291 138.323 6.9974 125.393 19.7113 124.956Z" fill="black"/>
<path d="M125.844 139.718C138.568 142.608 150.517 172.779 149.978 198.715C136.026 178.661 102.892 175.015 101.148 160.431C99.4051 145.846 113.12 136.828 125.844 139.718Z" fill="black"/>
<path d="M565.464 202.046C554.032 196.527 531.291 213.524 518.464 237C538.164 231.039 557.316 238.414 570.545 233.321C583.775 228.228 576.897 207.565 565.464 202.046Z" fill="black"/>
<path d="M580.328 124.956C571.009 124.519 556.73 144.083 550.79 165.262C564.493 154.715 579.82 154.08 588.856 146.201C597.893 138.323 589.647 125.393 580.328 124.956Z" fill="black"/>
<path d="M502.535 139.718C493.209 142.608 484.45 172.779 484.845 198.715C495.072 178.661 519.358 175.015 520.636 160.431C521.914 145.846 511.861 136.828 502.535 139.718Z" fill="black"/>
<path d="M329.814 83.6364C332.151 75.8783 314.174 41.4121 294.964 0C275.37 39.4655 256.778 71.3492 258.371 83.6364C258.371 83.6364 260.114 120 294.964 120C329.814 120 329.814 83.6364 329.814 83.6364Z" fill="black"/>
</svg>
