<svg width="850" height="167" viewBox="0 0 850 167" fill="none" xmlns="http://www.w3.org/2000/svg">
<path d="M56.8689 116.678C79.2463 108.799 123.759 133.065 148.865 166.583C110.305 158.072 72.8186 168.601 46.9233 161.329C21.028 154.058 34.4914 124.558 56.8689 116.678Z" fill="black"/>
<path d="M28.1425 6.61525C46.2944 5.99136 74.108 33.9224 85.6781 64.1602C58.9858 49.1019 29.1327 48.1961 11.5305 36.9472C-6.07176 25.6984 9.99058 7.23913 28.1425 6.61525Z" fill="black"/>
<path d="M179.669 27.6907C197.835 31.8167 214.896 74.8928 214.126 111.922C194.207 83.291 146.9 78.0858 144.411 57.2628C141.922 36.4398 161.503 23.5646 179.669 27.6907Z" fill="black"/>
<path d="M807.328 116.678C791.006 108.799 758.538 133.065 740.225 166.583C768.351 158.072 795.694 168.601 814.582 161.329C833.471 154.058 823.65 124.558 807.328 116.678Z" fill="black"/>
<path d="M828.549 6.61525C815.244 5.99136 794.857 33.9224 786.376 64.1602C805.941 49.1019 827.823 48.1961 840.725 36.9472C853.627 25.6984 841.854 7.23913 828.549 6.61525Z" fill="black"/>
<path d="M717.481 27.6907C704.165 31.8167 691.66 74.8928 692.225 111.922C706.825 83.291 741.5 78.0858 743.324 57.2628C745.149 36.4398 730.796 23.5646 717.481 27.6907Z" fill="black"/>
</svg>
