<svg width="599" height="599" viewBox="0 0 599 599" fill="none" xmlns="http://www.w3.org/2000/svg">
<path d="M299.497 383.047C345.641 383.047 383.046 345.642 383.046 299.497C383.046 253.353 345.641 215.948 299.497 215.948C253.353 215.948 215.948 253.353 215.948 299.497C215.948 345.642 253.353 383.047 299.497 383.047Z" stroke="white" stroke-width="41.7746" stroke-linecap="round" stroke-linejoin="round"/>
<path d="M511.779 254.81L481.208 180.991L522.295 132.399L466.595 76.6994L418.268 117.999L342.881 86.9966L325.545 21H271.118L253.52 87.8708L179.866 118.918L132.399 76.6994L76.6994 132.399L117.175 182.218L87.0735 256.227L21 271.647V327.347L87.8702 345.602L118.913 419.243L76.6994 466.595L132.399 522.295L182.282 481.643L254.854 511.498L271.647 577.994H327.347L344.182 511.523L418 480.952C430.305 489.747 466.595 522.295 466.595 522.295L522.295 466.595L480.963 417.842L511.542 344.001L577.992 326.712L577.994 271.647L511.779 254.81Z" stroke="white" stroke-width="41.7746" stroke-linecap="round" stroke-linejoin="round"/>
</svg>
