<svg width="643" height="1112" viewBox="0 0 643 1112" fill="none" xmlns="http://www.w3.org/2000/svg">
<path d="M109.006 616.071C105.717 616.008 105.717 616.008 102.438 615.704C66.1679 611.672 39.7055 575.735 43.3325 535.428L78.2846 109.044C81.6584 71.5516 110.05 43 143.958 43H399.546C406.848 43 414.099 44.3459 421 46.9837C455.471 60.1508 473.809 101.878 461.96 140.184L376.684 375.302L533.983 375.303C545.62 375.303 557.052 378.723 567.12 385.215C598.641 405.551 609.362 450.433 591.064 485.465C567.326 532.141 328.766 933.057 251.674 1062.44C245.541 1072.73 229.831 1067.69 230.53 1055.72L256.342 615.704L109.006 616.071Z" stroke="white" stroke-width="85.9056" stroke-linecap="round" stroke-linejoin="round"/>
</svg>
