<svg width="1387" height="1387" viewBox="0 0 1387 1387" fill="none" xmlns="http://www.w3.org/2000/svg">
<path d="M693.678 1338.36C1049.72 1338.36 1338.36 1049.72 1338.36 693.678C1338.36 337.632 1049.72 49 693.678 49C337.632 49 49 337.632 49 693.678C49 1049.72 337.632 1338.36 693.678 1338.36Z" stroke="white" stroke-width="96.7018" stroke-linecap="round" stroke-linejoin="round"/>
<path d="M81.2339 725.912L435.807 854.848L371.339 1080.49L435.807 1273.89" stroke="white" stroke-width="96.7018" stroke-linecap="round" stroke-linejoin="round"/>
<path d="M1016.02 1241.65L983.784 1080.49L822.614 1016.02V790.38L1016.02 725.912L1306.12 758.146" stroke="white" stroke-width="96.7018" stroke-linecap="round" stroke-linejoin="round"/>
<path d="M1144.95 274.637L1112.72 371.339L887.082 403.573V596.977L1048.25 532.509H1177.19L1306.12 596.977" stroke="white" stroke-width="96.7018" stroke-linecap="round" stroke-linejoin="round"/>
<path d="M81.2339 596.977L242.403 468.041L403.573 435.807L532.509 242.403L468.041 113.468" stroke="white" stroke-width="96.7018" stroke-linecap="round" stroke-linejoin="round"/>
</svg>
