<svg width="168" height="168" viewBox="0 0 168 168" fill="none" xmlns="http://www.w3.org/2000/svg">
<path d="M147 3H21C11.0589 3 3 11.0589 3 21V147C3 156.941 11.0589 165 21 165H147C156.941 165 165 156.941 165 147V21C165 11.0589 156.941 3 147 3Z" stroke="black" stroke-width="5" stroke-linecap="round" stroke-linejoin="round"/>
<path d="M57 75C66.9411 75 75 66.9411 75 57C75 47.0589 66.9411 39 57 39C47.0589 39 39 47.0589 39 57C39 66.9411 47.0589 75 57 75Z" stroke="black" stroke-width="5" stroke-linecap="round" stroke-linejoin="round"/>
<path d="M165 111L137.226 83.2262C133.85 79.8517 129.273 77.9561 124.5 77.9561C119.727 77.9561 115.15 79.8517 111.774 83.2262L30 165" stroke="black" stroke-width="5" stroke-linecap="round" stroke-linejoin="round"/>
</svg>
