<svg width="184" height="185" viewBox="0 0 184 185" fill="none" xmlns="http://www.w3.org/2000/svg">
<path d="M55.4233 74.7561C54.1482 74.8247 52.8787 74.5444 51.7552 73.9462C50.6316 73.348 49.6978 72.4552 49.057 71.3665C48.4162 70.2778 48.0933 69.0357 48.1241 67.7774C48.1549 66.5191 48.5381 65.2937 49.2314 64.2367L86.0862 6.51127C86.6653 5.48339 87.5041 4.62042 88.5211 4.006C89.5381 3.39159 90.6989 3.04657 91.891 3.00439C93.0831 2.96222 94.266 3.22432 95.3251 3.76529C96.3842 4.30626 97.2836 5.10774 97.9359 6.09205L134.553 64.0319C135.275 65.0536 135.7 66.2504 135.781 67.4927C135.862 68.7351 135.597 69.9757 135.014 71.0802C134.432 72.1847 133.553 73.1111 132.475 73.759C131.396 74.407 130.159 74.7518 128.896 74.7561H55.4233Z" stroke="black" stroke-width="5" stroke-linecap="round" stroke-linejoin="round"/>
<path d="M62.3476 113.755H12.8913C7.42847 113.755 3 118.12 3 123.504V172.25C3 177.635 7.42847 182 12.8913 182H62.3476C67.8104 182 72.2389 177.635 72.2389 172.25V123.504C72.2389 118.12 67.8104 113.755 62.3476 113.755Z" stroke="black" stroke-width="5" stroke-linecap="round" stroke-linejoin="round"/>
<path d="M146.423 182C165.543 182 181.043 166.723 181.043 147.877C181.043 129.032 165.543 113.755 146.423 113.755C127.303 113.755 111.804 129.032 111.804 147.877C111.804 166.723 127.303 182 146.423 182Z" stroke="black" stroke-width="5" stroke-linecap="round" stroke-linejoin="round"/>
</svg>
